<svg xmlns="http://www.w3.org/2000/svg" viewBox="0 0 32 32" fill="none">
  <!-- Gecko body -->
  <path d="M16 4c-2 0-3.5 1-4.5 2.5C10.5 8 10 10 10 12c0 1.5.3 3 1 4l-3 4c-.5.7-.5 1.5 0 2l1 1c.5.5 1.3.5 1.8 0l2.5-3c.8.4 1.7.6 2.7.6s1.9-.2 2.7-.6l2.5 3c.5.5 1.3.5 1.8 0l1-1c.5-.5.5-1.3 0-2l-3-4c.7-1 1-2.5 1-4 0-2-.5-4-1.5-5.5C18.5 5 17 4 16 4z" fill="#22c55e"/>
  <!-- Head -->
  <ellipse cx="16" cy="9" rx="4.5" ry="4" fill="#16a34a"/>
  <!-- Eyes -->
  <circle cx="13.8" cy="8" r="1.3" fill="#0f172a"/>
  <circle cx="18.2" cy="8" r="1.3" fill="#0f172a"/>
  <circle cx="14.2" cy="7.6" r="0.4" fill="white"/>
  <circle cx="18.6" cy="7.6" r="0.4" fill="white"/>
  <!-- Front legs -->
  <path d="M11.5 14.5L7 13c-.5-.2-1 .1-1 .6v1c0 .4.3.7.6.8l4 1.2" stroke="#22c55e" stroke-width="1.5" stroke-linecap="round" fill="none"/>
  <path d="M20.5 14.5L25 13c.5-.2 1 .1 1 .6v1c0 .4-.3.7-.6.8l-4 1.2" stroke="#22c55e" stroke-width="1.5" stroke-linecap="round" fill="none"/>
  <!-- Toes -->
  <circle cx="6.5" cy="13.5" r="0.7" fill="#22c55e"/>
  <circle cx="25.5" cy="13.5" r="0.7" fill="#22c55e"/>
  <!-- Tail -->
  <path d="M16 20c0 2-1 4-2.5 5.5s-1.5 3 0 3.5c1 .3 2-.5 2.5-1.5.8-1.5 1-3 .5-4.5" stroke="#22c55e" stroke-width="1.8" stroke-linecap="round" fill="none"/>
  <!-- Headphones -->
  <path d="M10 8.5C10 5 12.5 3 16 3s6 2 6 5.5" stroke="#4ade80" stroke-width="1.5" stroke-linecap="round" fill="none"/>
  <rect x="8.5" y="7.5" width="2.5" height="3.5" rx="1" fill="#4ade80"/>
  <rect x="21" y="7.5" width="2.5" height="3.5" rx="1" fill="#4ade80"/>
</svg>
